<svg xmlns="http://www.w3.org/2000/svg">
<symbol id="dice-d4" fill="currentColor" viewBox="0 0 640 640"><path d="M283 77.4C302.2 53.9 338.1 53.9 357.3 77.4L577 345.9C594.1 366.8 590.6 397.7 569.3 414.2L349.6 585.1L346.3 587.4C330.4 597.7 309.9 597.7 294 587.4L290.7 585.1L71 414.2C51 398.7 46.7 370.6 60.3 349.9L63.3 345.9L283 77.4zM88.1 366.2C82.4 373.2 83.6 383.4 90.7 388.9L304.2 555L304.2 102L88.1 366.2zM336.2 555L549.7 388.9L552.1 386.6C556.3 381.7 557.1 374.6 554.1 368.9L552.3 366.2L336.2 102.1L336.2 555z"/></symbol>
<symbol id="dice-d6" fill="currentColor" viewBox="0 0 640 640"><path d="M280.8 68.3C305.4 54.3 335.6 54.3 360.1 68.3L520.1 159.7C543.5 173 558.4 197.2 560.2 223.8L560.4 229.2L560.4 410.9C560.4 439.6 545 466.1 520.1 480.4L360.1 571.8C335.5 585.8 305.3 585.8 280.8 571.8L120.8 480.4C95.9 466.2 80.5 439.7 80.5 411L80.5 229.2C80.5 200.5 95.9 174 120.8 159.8L280.8 68.4zM113.4 220.1C112.8 223.1 112.5 226.1 112.5 229.2L112.5 411C112.5 428.2 121.8 444.1 136.7 452.7L296.7 544.1C299.2 545.5 301.9 546.6 304.5 547.6L304.5 329.4L113.4 220.2zM336.4 329.3L336.4 547.5C339.1 546.6 341.7 545.5 344.2 544L504.2 452.6C519.2 444.1 528.4 428.1 528.4 410.9L528.4 229.2L528 222.8C527.9 221.9 527.6 221 527.5 220.1L336.4 329.3zM344.3 96C329.5 87.6 311.4 87.6 296.6 96L136.6 187.4C134 188.9 131.7 190.6 129.5 192.5L320.5 301.6L511.4 192.5C509.2 190.6 506.9 188.9 504.3 187.5L344.3 96z"/></symbol>
<symbol id="dice-d8" fill="currentColor" viewBox="0 0 640 640"><path d="M285.2 68.8C304.1 48.8 336 48.8 354.9 68.8L575 301.1C593.2 320.4 592.4 350.8 573.1 369L353 576.9L349.4 580C332.1 593.4 307.9 593.4 290.6 580L287.1 576.9L67 369C49 351.9 47.1 324.1 62 304.8L65.2 301L285.3 68.7zM304 548.9L304 397.2L100.1 356.4L304 548.9zM336 397.2L336 548.9L539.8 356.4L336 397.2zM89.7 321.6L304 364.5L304 95.4L89.7 321.6zM336 364.5L550.3 321.6L336 95.4L336 364.5z"/></symbol>
<symbol id="dice-d10" fill="currentColor" viewBox="0 0 640 640"><path d="M283.8 75C303 52.5 337.8 52.5 356.9 75L562.8 317.2C579.4 336.7 577.8 365.7 559.1 383.3L353.2 577.1L349.6 580.2C332.4 593.5 308.2 593.5 291 580.2L287.5 577L81.6 383.3C64.2 366.8 61.7 340.3 75 321L78 317.2L283.8 75zM110.2 366.2L304.4 548.9L304.4 416.8L212.3 360.1L110.2 366.1zM336.4 416.9L336.4 549L530.5 366.3L428.4 360.3L336.3 417zM236.2 337.4L320.4 389.2L404.6 337.4L320.4 123.7L236.2 337.4zM105.3 334.5L205.3 328.6L287.4 120.3L105.4 334.5zM435.6 328.6L535.6 334.5L353.6 120.3L435.7 328.6z"/></symbol>
<symbol id="dice-d12" fill="currentColor" viewBox="0 0 640 640"><path d="M375.7 64.1C385.5 64.7 395 67.6 403.5 72.5L492.6 124C502.3 129.6 510.4 137.7 516 147.4L567.5 236.5C573.1 246.2 576.1 257.3 576.1 268.5L576.1 371.4L576 375.6C575.4 385.4 572.5 394.9 567.6 403.4L516.1 492.5L513.9 496.1C508.5 504.2 501.2 511 492.7 515.9L403.6 567.4L399.9 569.4C392.4 573.1 384.2 575.3 375.8 575.9L371.6 576L268.7 576L264.5 575.9C256.1 575.3 247.9 573.1 240.4 569.4L236.7 567.4L147.6 515.9C139.1 511 131.9 504.2 126.4 496.1L124 492.6L72.6 403.4C67.7 394.9 64.8 385.4 64.2 375.6L64 371.4L64 268.6C64 258.8 66.3 249.1 70.6 240.3L72.6 236.6L124.1 147.5C129 139 135.8 131.8 143.9 126.3L147.4 124L236.6 72.6C245.1 67.7 254.6 64.8 264.4 64.2L268.6 64.1L371.5 64.1L375.7 64.2zM212.1 391.8L270.1 544L370 544L428 391.8L320.1 337.8L212.2 391.8zM96 371.4C96 377 97.5 382.5 100.3 387.4L151.7 476.5L154 480C156.6 483.3 159.7 486.1 163.4 488.2L229 526L178 392.2L95.9 298.4L95.9 371.3zM461.9 392.3L410.9 526.1L476.5 488.3C481.4 485.5 485.4 481.4 488.2 476.6L539.6 387.5C542.4 382.6 543.9 377.1 543.9 371.5L543.9 298.6L461.8 392.4zM151.7 163.4L100.3 252.6C100 253.1 99.8 253.6 99.5 254.1L195.8 364.2L303.9 310.1L303.9 204.1L153.2 161L151.6 163.4zM336 204.1L336 310.1L444.1 364.2L540.4 254.1L539.7 252.6L488.3 163.5C487.8 162.7 487.2 161.9 486.7 161.1L336 204.1zM268.6 96C264.4 96 260.2 96.8 256.4 98.4L252.6 100.2L187.9 137.5L320 175.3L452.1 137.5L387.4 100.2C382.5 97.4 377 95.9 371.4 95.9L268.6 96z"/></symbol>
<symbol id="dice-d20" fill="currentColor" viewBox="0 0 640 640"><path d="M292.2 53.8C309.8 45.3 330.3 45.3 347.9 53.8L351.6 55.8L543.6 164.6C562.4 175.3 574.4 194.6 575.9 216L576.1 220.3L576.1 435.8C576.1 457.4 565.2 477.5 547.3 489.2L543.6 491.4L351.6 600.2C332 611.3 308 611.3 288.5 600.2L96.4 491.5C76.4 480.1 64 458.8 64 435.8L64 220.3L64.2 216C65.6 194.6 77.7 175.3 96.5 164.6L288.5 55.8L292.2 53.8zM304 572.3L304 496L137.9 478.1L304 572.3zM336 495.9L336 572.2L502.1 478.1L336 495.9zM108.6 442.8L290.5 462.3L199.1 302.7L108.5 442.8zM349.4 462.3L531.3 442.8L440.7 302.7L349.3 462.3zM320 449.4L412.4 288L227.6 288L320 449.4zM96 220.2L96 403.4L178.2 276.1L96 218C96 218.7 95.9 219.4 95.9 220.1zM461.8 276.1L544 403.3L544 220.2C544 219.5 543.9 218.8 543.8 218.1L461.7 276.1zM227.7 256L412.4 256L320 95.5L227.7 256zM113.8 191.5L194.9 248.8L283.1 95.6L113.9 191.5zM445.1 248.8L526.2 191.5L357 95.6L445.1 248.8z"/></symbol>
<symbol id="dice-d100" fill="currentColor" viewBox="0 0 640 640"><path d="M283.8 75C303 52.5 337.8 52.5 356.9 75L562.8 317.2C579.4 336.7 577.8 365.7 559.1 383.3L353.2 577.1L349.6 580.2C332.4 593.5 308.2 593.5 291 580.2L287.5 577L81.6 383.3C64.2 366.8 61.7 340.3 75 321L78 317.2L283.8 75zM110.2 366.2L304.4 548.9L304.4 416.8L212.3 360.1L110.2 366.1zM336.4 416.9L336.4 549L530.5 366.3L428.4 360.3L336.3 417zM236.2 337.4L320.4 389.2L404.6 337.4L320.4 123.7L236.2 337.4zM105.3 334.5L205.3 328.6L287.4 120.3L105.4 334.5zM435.6 328.6L535.6 334.5L353.6 120.3L435.7 328.6z"/></symbol>
<symbol id="dice" fill="currentColor" viewBox="0 0 640 640"><path d="M518.7 256.3C551 259.6 576.2 286.8 576.2 320L576.2 512L575.9 518.5C572.8 548.6 548.9 572.6 518.8 575.6L512.3 575.9L320.3 575.9L313.8 575.6C283.7 572.5 259.7 548.6 256.7 518.5L256.4 512L256.4 481.8L288.4 490.4L288.4 512.1C288.4 529.8 302.7 544.1 320.4 544.1L512.4 544.1C530.1 544.1 544.4 529.8 544.4 512.1L544.4 320.1C544.4 302.4 530.1 288.1 512.4 288.1L473.6 288.1L482.2 256.1L512.4 256.1L518.9 256.4zM119.5 110.2C131.6 78.4 164.6 59.3 198.2 64.8L205.4 66.3L394.9 117.1L401.9 119.4C436 132.4 455.4 169.3 445.8 205.3L395 394.8L392.8 401.8C380.7 433.6 347.7 452.7 314.1 447.2L306.9 445.7L117.3 394.9C81.3 385.2 59 349.9 64.9 313.9L66.4 306.7L117.2 117.2L119.4 110.2zM192.5 96.3C174.3 93.6 156.4 103.9 149.6 121.1L148 126.2L97.4 315C91.7 336.3 104.4 358.3 125.7 364L315.2 414.8L315.2 414.8C335.2 420.2 355.7 409.4 362.9 390.4L364.2 386.5L415 197L415.8 193.2C418.9 174.5 408.5 156.2 390.9 149.4L386 147.8L198.3 97.5L192.5 96.3zM316.1 365.8C304.6 372.4 289.9 368.5 283.3 357C276.7 345.5 280.6 330.8 292.1 324.2C303.6 317.6 318.3 321.5 324.9 333C331.5 344.5 327.6 359.2 316.1 365.8zM179.1 324.8C167.6 331.4 152.9 327.5 146.3 316C139.7 304.5 143.6 289.8 155.1 283.2C166.6 276.6 181.3 280.5 187.9 292C194.5 303.5 190.6 318.2 179.1 324.8zM268.1 276.8C260.7 281.6 251.2 281.9 243.4 277.6C235.7 273.3 230.9 265.1 231.1 256.3C231.2 247.4 236.2 239.3 244.1 235.3C251.5 230.5 261 230.2 268.8 234.5C276.5 238.8 281.3 247 281.1 255.8C281 264.7 276 272.8 268.1 276.8zM357.1 228.8C345.6 235.4 330.9 231.5 324.3 220C317.7 208.5 321.6 193.8 333.1 187.2C344.6 180.6 359.3 184.5 365.9 196C372.5 207.5 368.6 222.2 357.1 228.8zM220.1 187.8C208.6 194.4 193.9 190.5 187.3 179C180.7 167.5 184.6 152.8 196.1 146.2C207.6 139.6 222.3 143.5 228.9 155C235.5 166.5 231.6 181.2 220.1 187.8z"/></symbol>
<symbol id="dice-vicious" fill="currentColor" viewBox="0 0 640 640"><path d="M68.7 68.7C74.9 62.5 85.1 62.5 91.3 68.7L202.9 180.3C216.4 193.8 224 212.1 224 231.2L224 256L248.8 256C267.9 256 286.2 263.6 299.7 277.1L394.9 372.3C408.4 385.8 416 404.1 416 423.2L416 448L440.8 448C459.9 448 478.2 455.6 491.7 469.1L571.3 548.7C577.5 554.9 577.5 565.1 571.3 571.3C565.1 577.5 554.9 577.5 548.7 571.3L469.1 491.7C461.6 484.2 451.4 480 440.8 480L400 480C391.2 480 384 472.8 384 464L384 423.2C384 412.6 379.8 402.4 372.3 394.9L277.1 299.7C269.6 292.2 259.4 288 248.8 288L208 288C199.2 288 192 280.8 192 272L192 231.2C192 220.6 187.8 210.4 180.3 202.9L68.7 91.3C62.5 85.1 62.5 74.9 68.7 68.7zM68.7 292.7C74.9 286.5 85.1 286.5 91.3 292.7L173.2 374.6C185.2 386.6 191.9 402.9 191.9 419.9L191.9 448L220 448C237 448 253.3 454.7 265.3 466.7L347.2 548.6C353.4 554.8 353.4 565 347.2 571.2C341 577.4 330.8 577.4 324.6 571.2L242.7 489.3C236.7 483.3 228.6 479.9 220.1 479.9L176 480C167.2 480 160 472.8 160 464L160 419.9C160 411.4 156.6 403.3 150.6 397.3L68.7 315.3C62.5 309.1 62.5 298.9 68.7 292.7zM315.3 68.7L333.2 86.6C345.2 98.6 351.9 114.9 351.9 131.9L351.9 160L380 160C397 160 413.3 166.7 425.3 178.7L461.2 214.6C473.2 226.6 479.9 242.9 479.9 259.9L479.9 288L508 288C525 288 541.3 294.7 553.3 306.7L571.2 324.6C577.4 330.8 577.4 341 571.2 347.2C565 353.4 554.8 353.4 548.6 347.2L530.7 329.3C524.7 323.3 516.6 319.9 508.1 319.9L464 320C455.2 320 448 312.8 448 304L448 259.9C448 251.4 444.6 243.3 438.6 237.3L402.7 201.4C396.7 195.4 388.6 192 380.1 192L336 192C327.2 192 320 184.8 320 176L320 131.9C320 123.4 316.6 115.3 310.6 109.3L292.7 91.3C286.5 85.1 286.5 74.9 292.7 68.7C298.9 62.5 309.1 62.5 315.3 68.7z"/></symbol>
<symbol id="dice-explode" fill="currentColor" viewBox="0 0 640 640"><path d="M68.7 68.7C74.1 63.3 82.5 62.5 88.9 66.7L264.1 183.5L305 74.4C307.4 68.1 313.3 64 320 64C326.7 64 332.6 68.1 335 74.4L377.6 188L459 160.9C464.8 159 471.1 160.5 475.4 164.8C479.7 169.1 481.2 175.4 479.3 181.2L452.1 262.4L565.6 305C571.8 307.3 576 313.3 576 320C576 326.7 571.9 332.6 565.6 335L454.2 376.8L510.3 488.9C513.4 495.1 512.2 502.5 507.3 507.4C502.4 512.3 495 513.5 488.8 510.4L376.7 454.3L335 565.6C332.7 571.8 326.7 576 320 576C313.3 576 307.4 571.9 305 565.6L263.3 454.3L151.2 510.3C145 513.4 137.6 512.2 132.7 507.3C127.8 502.4 126.6 495 129.7 488.8L185.7 376.7L74.4 335C68.1 332.6 64 326.7 64 320C64 313.3 68.1 307.4 74.4 305L183.5 264.1L66.7 88.9C62.5 82.6 63.3 74.1 68.7 68.7zM137.7 137.7L221.3 263.1C224 267.2 224.7 272.2 223.2 276.9C221.7 281.6 218.2 285.3 213.6 287L125.6 320L213.6 353C217.8 354.6 221.2 357.9 222.9 362.1C224.6 366.3 224.3 371.1 222.3 375.1L179.8 460.2L264.9 417.7C269 415.7 273.7 415.5 277.9 417.1C282.1 418.7 285.4 422.1 287 426.4L320 514.5L353 426.4C354.6 422.2 357.9 418.8 362.1 417.1C366.3 415.4 371.1 415.7 375.1 417.7L460.2 460.2L417.7 375.1C415.7 371 415.5 366.3 417.1 362.1C418.7 357.9 422.1 354.6 426.4 353L514.5 320L426.4 287C418.3 284 414.1 275.1 416.8 267L438.7 201.4L373.1 223.3C364.9 226 356.1 221.8 353.1 213.7L320.1 125.7L287.1 213.7C285.4 218.3 281.7 221.8 277 223.3C272.3 224.8 267.3 224.1 263.2 221.4L137.7 137.7z"/></symbol>
<symbol id="dice-unknown" fill="currentColor" viewBox="0 0 640 640"><path d="M160 128C142.3 128 128 142.3 128 160L128 480C128 497.7 142.3 512 160 512L480 512C497.7 512 512 497.7 512 480L512 160C512 142.3 497.7 128 480 128L160 128zM96 160C96 124.7 124.7 96 160 96L480 96C515.3 96 544 124.7 544 160L544 480C544 515.3 515.3 544 480 544L160 544C124.7 544 96 515.3 96 480L96 160zM320 224C293.5 224 272 245.5 272 272C272 280.8 264.8 288 256 288C247.2 288 240 280.8 240 272C240 227.8 275.8 192 320 192C364.2 192 400 227.8 400 272C400 311.6 374.3 332.3 353.8 342.1C342.3 347.6 336 356.6 336 364.3L336 370C336 378.8 328.8 386 320 386C311.2 386 304 378.8 304 370L304 364.3C304 339.7 322.3 321.7 340 313.3C354.5 306.4 368 294.5 368 272.1C368 245.6 346.5 224.1 320 224.1zM296 440C296 426.7 306.7 416 320 416C333.3 416 344 426.7 344 440C344 453.3 333.3 464 320 464C306.7 464 296 453.3 296 440z"/></symbol>
<symbol id="x" fill="currentColor" viewBox="0 0 640 640"><path d="M507.3 155.3C513.5 149.1 513.5 138.9 507.3 132.7C501.1 126.5 490.9 126.5 484.7 132.7L320 297.4L155.3 132.7C149.1 126.5 138.9 126.5 132.7 132.7C126.5 138.9 126.5 149.1 132.7 155.3L297.4 320L132.7 484.7C126.5 490.9 126.5 501.1 132.7 507.3C138.9 513.5 149.1 513.5 155.3 507.3L320 342.6L484.7 507.3C490.9 513.5 501.1 513.5 507.3 507.3C513.5 501.1 513.5 490.9 507.3 484.7L342.6 320L507.3 155.3z"/></symbol>
<symbol id="trash" fill="currentColor" viewBox="0 0 640 640"><path d="M256.5 91.4C258.5 84.6 264.8 80 271.8 80L368.2 80C375.3 80 381.5 84.6 383.5 91.4L394.5 128L245.5 128L256.5 91.4zM212.1 128L112 128C103.2 128 96 135.2 96 144C96 152.8 103.2 160 112 160L528 160C536.8 160 544 152.8 544 144C544 135.2 536.8 128 528 128L427.9 128L414.2 82.2C408.1 61.9 389.4 48 368.2 48L271.8 48C250.6 48 231.9 61.9 225.8 82.2L212.1 128zM128 208L128 512C128 547.3 156.7 576 192 576L448 576C483.3 576 512 547.3 512 512L512 208L480 208L480 512C480 529.7 465.7 544 448 544L192 544C174.3 544 160 529.7 160 512L160 208L128 208zM240 272C240 263.2 232.8 256 224 256C215.2 256 208 263.2 208 272L208 464C208 472.8 215.2 480 224 480C232.8 480 240 472.8 240 464L240 272zM336 272C336 263.2 328.8 256 320 256C311.2 256 304 263.2 304 272L304 464C304 472.8 311.2 480 320 480C328.8 480 336 472.8 336 464L336 272zM432 272C432 263.2 424.8 256 416 256C407.2 256 400 263.2 400 272L400 464C400 472.8 407.2 480 416 480C424.8 480 432 472.8 432 464L432 272z"/></symbol>
<symbol id="enlarge" fill="currentColor" viewBox="0 0 640 640"><path d="M272 96C369.2 96 448 174.8 448 272C448 369.2 369.2 448 272 448C174.8 448 96 369.2 96 272C96 174.8 174.8 96 272 96zM272 480C323.7 480 371 461.2 407.3 430L548.7 571.3C554.9 577.5 565.1 577.5 571.3 571.3C577.5 565.1 577.5 554.9 571.3 548.7L430 407.3C461.2 371 480 323.7 480 272C480 157.1 386.9 64 272 64C157.1 64 64 157.1 64 272C64 386.9 157.1 480 272 480zM256 344C256 352.8 263.2 360 272 360C280.8 360 288 352.8 288 344L288 288L344 288C352.8 288 360 280.8 360 272C360 263.2 352.8 256 344 256L288 256L288 200C288 191.2 280.8 184 272 184C263.2 184 256 191.2 256 200L256 256L200 256C191.2 256 184 263.2 184 272C184 280.8 191.2 288 200 288L256 288L256 344z"/></symbol>
</svg>
